<?xml version="1.0" encoding="iso-8859-1"?>
<!-- Generator: Adobe Illustrator 19.0.0, SVG Export Plug-In . SVG Version: 6.00 Build 0)  -->
<svg version="1.1" id="Layer_1" xmlns="http://www.w3.org/2000/svg" xmlns:xlink="http://www.w3.org/1999/xlink" x="0px" y="0px"
	 viewBox="0 0 512 512" style="enable-background:new 0 0 512 512;" xml:space="preserve">
<g>
	<g>
		<path d="M448,383.996H181.344c-5.875,0-10.672-4.781-10.672-10.656c0-5.891,4.797-10.688,10.672-10.688H192h128h21.344h85.328H448
			l64-234.656H128.844l-18.172-66.805l-0.016,0.008c-1.125-4.141-4.656-7.273-9.016-7.789v-0.008L11.938,42.738v0.008
			c-0.406-0.055-0.844-0.086-1.266-0.086C4.781,42.66,0,47.441,0,53.332c0,5.461,4.125,9.961,9.406,10.586l82.562,9.82
			l73.969,271.539c-9.891,5.438-16.594,15.969-16.594,28.062c0,16.062,11.828,29.344,27.25,31.641
			c-3.75,6.359-5.922,13.766-5.922,21.672c0,23.562,19.109,42.688,42.672,42.688S256,450.215,256,426.652
			c0-7.766-2.078-15.047-5.719-21.312h96.781c-3.625,6.266-5.719,13.547-5.719,21.312c0,23.562,19.094,42.688,42.656,42.688
			s42.672-19.125,42.672-42.688c0-7.766-2.078-15.047-5.719-21.312H448c5.906,0,10.672-4.781,10.672-10.688
			C458.672,388.777,453.906,383.996,448,383.996z M320,341.34H213.344v-64h21.328H320V341.34z M320,255.996h-64v-42.664h64V255.996z
			 M405.344,341.34h-64v-64v-21.344V234.66h64V341.34z M134.594,149.332h349.484L431.719,341.34h-5.047V213.332h-85.328v-21.336
			H234.672v64H192v85.344h-5.031L134.594,149.332z M213.344,447.996c-11.766,0-21.344-9.562-21.344-21.344
			c0-11.75,9.578-21.312,21.344-21.312c11.75,0,21.328,9.562,21.328,21.312C234.672,438.433,225.094,447.996,213.344,447.996z
			 M384,447.996c-11.75,0-21.328-9.562-21.328-21.344c0-11.75,9.578-21.312,21.328-21.312c11.781,0,21.344,9.562,21.344,21.312
			C405.344,438.433,395.782,447.996,384,447.996z"/>
	</g>
</g>
<g>
	<g>
		<path d="M384,415.996c-5.875,0-10.656,4.781-10.656,10.656c0,5.907,4.781,10.688,10.656,10.688
			c5.906,0,10.672-4.781,10.672-10.688C394.672,420.777,389.906,415.996,384,415.996z"/>
	</g>
</g>
<g>
	<g>
		<path d="M213.344,415.996c-5.89,0-10.672,4.781-10.672,10.656c0,5.907,4.781,10.688,10.672,10.688S224,432.559,224,426.652
			C224,420.777,219.234,415.996,213.344,415.996z"/>
	</g>
</g>
<g>
</g>
<g>
</g>
<g>
</g>
<g>
</g>
<g>
</g>
<g>
</g>
<g>
</g>
<g>
</g>
<g>
</g>
<g>
</g>
<g>
</g>
<g>
</g>
<g>
</g>
<g>
</g>
<g>
</g>
</svg>
